<svg id="Layer_1" data-name="Layer 1" xmlns="http://www.w3.org/2000/svg" viewBox="0 0 720 201.02">
  <defs>
    <style>
      .cls-1, .cls-3 {
        fill: #0058a9;
      }

      .cls-2 {
        fill: #fff;
      }

      .cls-2, .cls-3, .cls-4 {
        fill-rule: evenodd;
      }

      .cls-4 {
        fill: #ed1c24;
      }
    </style>
  </defs>
  <title>Proudly_Canadian_TopBar</title>
  <g>
    <path class="cls-1" d="M1159.49,1497.34a6,6,0,0,1-2.09,4.9,9.24,9.24,0,0,1-6,1.7h-2.12v7.64H1146v-20.42h5.88q3.83,0,5.73,1.56a5.61,5.61,0,0,1,1.91,4.61Zm-10.18,3.8h1.77a6.36,6.36,0,0,0,3.77-.9,3.25,3.25,0,0,0,1.2-2.79,3.18,3.18,0,0,0-1.08-2.63,5.31,5.31,0,0,0-3.35-.86h-2.32v7.18Z" transform="translate(-1056 -1316.65)"/>
    <path class="cls-1" d="M1176.1,1500.66h2.32a5.3,5.3,0,0,0,3.38-.87,3.14,3.14,0,0,0,1-2.57,2.75,2.75,0,0,0-1.13-2.48,6.17,6.17,0,0,0-3.4-.75h-2.21v6.67Zm0,2.77v8.16h-3.34v-20.42h5.77q4,0,5.85,1.48a5.31,5.31,0,0,1,1.9,4.47q0,3.81-4,5.43l5.77,9h-3.8l-4.89-8.16Z" transform="translate(-1056 -1316.65)"/>
    <path class="cls-1" d="M1218.35,1501.35q0,5-2.49,7.75a9,9,0,0,1-7.06,2.76q-4.62,0-7.1-2.75t-2.48-7.8q0-5.06,2.49-7.77a9.2,9.2,0,0,1,7.12-2.71,9,9,0,0,1,7,2.76q2.48,2.75,2.48,7.75Zm-15.58,0a9.14,9.14,0,0,0,1.52,5.72,6.19,6.19,0,0,0,9,0,11.6,11.6,0,0,0,0-11.44,5.31,5.31,0,0,0-4.48-1.94,5.43,5.43,0,0,0-4.53,1.94,9.1,9.1,0,0,0-1.53,5.7Z" transform="translate(-1056 -1316.65)"/>
    <path class="cls-1" d="M1247.93,1491.17v13.21a7.82,7.82,0,0,1-1,4,6.48,6.48,0,0,1-2.81,2.61,9.74,9.74,0,0,1-4.39.92,8.22,8.22,0,0,1-5.91-2,7.28,7.28,0,0,1-2.11-5.53v-13.16h3.35v12.92a5.16,5.16,0,0,0,1.18,3.73,4.83,4.83,0,0,0,3.6,1.2q4.73,0,4.72-5v-12.89Z" transform="translate(-1056 -1316.65)"/>
    <path class="cls-1" d="M1278.94,1501.18q0,5.06-2.81,7.73t-8.08,2.67h-5.72v-20.42h6.32q4.87,0,7.58,2.63a9.8,9.8,0,0,1,2.71,7.38Zm-3.52.11q0-7.34-6.86-7.33h-2.89v14.82H1268q7.37,0,7.37-7.48Z" transform="translate(-1056 -1316.65)"/>
    <polygon class="cls-1" points="236.5 194.94 236.5 174.52 239.84 174.52 239.84 192.07 248.49 192.07 248.49 194.94 236.5 194.94 236.5 194.94"/>
    <polygon class="cls-1" points="266.1 183.83 270.94 174.52 274.57 174.52 267.77 187.02 267.77 194.94 264.42 194.94 264.42 187.13 257.64 174.52 261.27 174.52 266.1 183.83 266.1 183.83"/>
    <path class="cls-1" d="M1389.14,1493.74a5.5,5.5,0,0,0-4.53,2,10.72,10.72,0,0,0-.06,11.31,5.61,5.61,0,0,0,4.59,1.93,12.1,12.1,0,0,0,2.51-.26c.81-.17,1.65-.4,2.53-.66V1511a15.3,15.3,0,0,1-5.44.91,8.71,8.71,0,0,1-6.89-2.72q-2.4-2.72-2.4-7.77a12.57,12.57,0,0,1,1.16-5.57,8.31,8.31,0,0,1,3.38-3.66,10.18,10.18,0,0,1,5.18-1.27,12.82,12.82,0,0,1,5.78,1.32l-1.2,2.78a17.92,17.92,0,0,0-2.19-.86,8,8,0,0,0-2.42-.37Z" transform="translate(-1056 -1316.65)"/>
    <path class="cls-1" d="M1420.43,1511.59l-2-5.67h-7.81l-2,5.67h-3.52l7.64-20.5h3.63l7.64,20.5Zm-2.92-8.55-1.91-5.56q-.21-.56-.58-1.76c-.24-.8-.41-1.39-.51-1.76a30.32,30.32,0,0,1-1.1,3.76l-1.84,5.32Z" transform="translate(-1056 -1316.65)"/>
    <path class="cls-1" d="M1452.87,1511.59h-4.09l-10-16.27h-.11l.07.91c.13,1.74.2,3.32.2,4.75v10.62h-3v-20.42h4.05l10,16.18h.08c0-.21-.06-1-.11-2.34s-.09-2.4-.09-3.15v-10.7h3.06v20.42Z" transform="translate(-1056 -1316.65)"/>
    <path class="cls-1" d="M1480.11,1511.59l-2-5.67h-7.81l-2,5.67h-3.52l7.64-20.5H1476l7.64,20.5Zm-2.92-8.55-1.91-5.56c-.14-.37-.33-1-.58-1.76s-.41-1.39-.51-1.76a30.27,30.27,0,0,1-1.1,3.76l-1.84,5.32Z" transform="translate(-1056 -1316.65)"/>
    <path class="cls-1" d="M1512.14,1501.18q0,5.06-2.81,7.73t-8.08,2.67h-5.72v-20.42h6.32q4.87,0,7.58,2.63a9.8,9.8,0,0,1,2.71,7.38Zm-3.52.11q0-7.34-6.86-7.33h-2.89v14.82h2.37q7.37,0,7.38-7.48Z" transform="translate(-1056 -1316.65)"/>
    <polygon class="cls-1" points="469.71 194.94 469.71 174.52 473.05 174.52 473.05 194.94 469.71 194.94 469.71 194.94"/>
    <path class="cls-1" d="M1556.29,1511.59l-2-5.67h-7.81l-2,5.67h-3.52l7.64-20.5h3.63l7.64,20.5Zm-2.92-8.55-1.91-5.56c-.14-.37-.33-1-.58-1.76s-.41-1.39-.51-1.76a30.25,30.25,0,0,1-1.1,3.76l-1.84,5.32Z" transform="translate(-1056 -1316.65)"/>
    <path class="cls-1" d="M1588.73,1511.59h-4.09l-10-16.27h-.11l.07.91c.13,1.74.2,3.32.2,4.75v10.62h-3v-20.42h4.05l10,16.18h.08c0-.21-.06-1-.11-2.34s-.09-2.4-.09-3.15v-10.7h3.06v20.42Z" transform="translate(-1056 -1316.65)"/>
    <path class="cls-2" d="M1127.26,1338.06h489.42a96.74,96.74,0,0,1,13.08-11.66l.43-.29c4.19-3,8.62-5.36,12.81-6.26a7.19,7.19,0,0,1,1.07-.23h0l1.84-.31,2.89-.51c1.86-.33,4-.72,7.69-1.29a72.61,72.61,0,0,1,7.38-.86,7.17,7.17,0,0,1,7.36,6h0a16.07,16.07,0,0,0,5.13,9.29,24.16,24.16,0,0,0,11.81,5.65,31.45,31.45,0,0,0,16.76-1.53c3.12-1.31,5.64-3.41,6.48-6.56a7.19,7.19,0,0,1,8.8-5.09,7.41,7.41,0,0,1,1,.34l3.83,1.42,4.69,1.8c3,1.14,5.81,2.27,7.91,3.13,1.47.6,2.73,1.16,3.64,1.62,3.35,1.46,6.63,4.33,9.54,7.64a83.48,83.48,0,0,1,8.93,12.63c3,5.14,6.71,16.42,9.87,26.92,3,10,5.61,19.8,6.15,21.83a7.18,7.18,0,0,1-4.48,8.57c-1.31.54-4.43,1.8-7.6,2.92a51.61,51.61,0,0,1-11.26,2.92,40.36,40.36,0,0,1-4.38.08c-1.72,0-3.27-.17-4.58-.33l-.33,0c-1.59,10.31-4.45,28.82-5.78,37.53-1.47,9.6-2.6,16.95-2.65,17.28l0,.19-.24,1.71-.35,2.38v.06c-.73,4.89-1.76,11.86-1.78,12.55v0l0,.52v0c.23,3.31.35,5.1-3.57,7.92a17.65,17.65,0,0,1-3.12,1.78,38,38,0,0,1-6,2.1,90.25,90.25,0,0,1-10.18,2h0c-4.15.6-9.31,1.16-15.74,1.57-12.53.81-21,.46-27.78-.56a89.9,89.9,0,0,1-17.23-4.57l-.3-.11-.67-.23c-2.78-.95-5.77-2-8.7-3.08s-5.93-2.26-9.18-3.63c-3-1.28-5.95-2.62-8.54-4a46.19,46.19,0,0,1-7.18-4.49l-.42-.36a22.54,22.54,0,0,1-3-2.94H1127.26c-39.2,0-71.26-31.83-71.26-70.74h0c0-38.91,32.07-70.74,71.26-70.74Z" transform="translate(-1056 -1316.65)"/>
    <path class="cls-3" d="M1127.26,1338.06h489.42a96.74,96.74,0,0,1,13.08-11.66l.43-.29c4.19-3,8.62-5.36,12.81-6.26a7.13,7.13,0,0,1,1.07-.23h0l1.84-.31,2.89-.51c1.86-.33,4-.72,7.69-1.29a72.26,72.26,0,0,1,7.38-.86,7.17,7.17,0,0,1,7.36,6h0a16.07,16.07,0,0,0,5.13,9.3,24.16,24.16,0,0,0,11.81,5.65,31.44,31.44,0,0,0,16.76-1.53c3.12-1.31,5.64-3.41,6.48-6.56a7.19,7.19,0,0,1,8.8-5.09,7.32,7.32,0,0,1,1,.35l3.83,1.42,4.69,1.8c3,1.14,5.81,2.27,7.91,3.13,1.47.6,2.73,1.16,3.63,1.62,3.35,1.46,6.63,4.33,9.54,7.64a83.57,83.57,0,0,1,8.93,12.63c3,5.14,6.71,16.42,9.87,26.92,3,10,5.61,19.8,6.15,21.83a7.18,7.18,0,0,1-4.48,8.57c-1.31.54-4.43,1.8-7.6,2.92a51.64,51.64,0,0,1-11.26,2.92,40.71,40.71,0,0,1-4.38.08c-1.72-.05-3.27-.17-4.58-.33l-.33,0c-1.59,10.31-4.45,28.82-5.78,37.53-1.47,9.6-2.6,16.94-2.65,17.28l0,.19-.24,1.71-.35,2.38v.06c-.73,4.89-1.76,11.86-1.78,12.55v0h0l0,.52v0c.23,3.31.35,5.1-3.57,7.92a17.73,17.73,0,0,1-3.12,1.78,38,38,0,0,1-6,2.1,90.28,90.28,0,0,1-10.18,2h0c-4.15.61-9.31,1.16-15.74,1.57-12.53.81-21,.46-27.78-.56a89.91,89.91,0,0,1-17.23-4.57l-.3-.11-.66-.23c-2.78-.95-5.77-2-8.7-3.08s-5.93-2.26-9.18-3.63c-3-1.28-5.95-2.62-8.54-4a46.08,46.08,0,0,1-7.18-4.49l-.42-.36a22.55,22.55,0,0,1-3-2.94H1127.26c-39.2,0-71.26-31.83-71.26-70.74h0c0-38.9,32.07-70.74,71.26-70.74Zm595.33,63.83-.44,3.13-11.28-1.57a29.33,29.33,0,0,1-31.18,23.91l-1.51,10.92-3.13-.44,1.51-10.9a29.25,29.25,0,0,1-17.94-11.13h0a29.24,29.24,0,0,1-5.81-20.41l-11-1.53.43-3.13,11.05,1.53a29.27,29.27,0,0,1,11.05-17.55h0a29.25,29.25,0,0,1,20.29-5.82l1.58-11.42,3.13.43-1.59,11.44a29.25,29.25,0,0,1,17.68,11.08h0a29.25,29.25,0,0,1,5.85,19.9l11.31,1.57Zm-15,1.1-13.51-1.87a12.39,12.39,0,0,1-12,9.38l-1.88,13.54a26,26,0,0,0,27.39-21ZM1677,1423.62l1.88-13.52a12.39,12.39,0,0,1-9.25-12.37l-13.51-1.87a25.91,25.91,0,0,0,5.16,17.93h0a25.91,25.91,0,0,0,15.72,9.83Zm-20.42-30.89,13.54,1.88a12.39,12.39,0,0,1,12.13-8.87l1.88-13.52a25.91,25.91,0,0,0-17.8,5.18h0a25.9,25.9,0,0,0-9.75,15.33Zm30.68-20.06-1.88,13.53a12.39,12.39,0,0,1,9,11.77l13.54,1.88a25.9,25.9,0,0,0-5.21-17.4h0a25.89,25.89,0,0,0-15.46-9.77Zm-60.24,19c-4.22,0-11-.33-15.39-2.46a75,75,0,0,1-13.9-9.09c2.14-3.45,20.53-33.11,22.8-35.67,5.27-5.93,16.43-16.36,24.48-17.7,0,0,4.63-.82,5-.89a138.84,138.84,0,0,1,14.11-2.07c2,11.94,12.42,18.9,22.73,20.82,10,1.87,28-.16,31.48-13.29,2.57.94,5.74,2.13,8.79,3.31,5.46,2.11,10.54,4.16,11.11,4.57l0,0c5.47,2.26,12.23,12.05,15.25,17.31,5.18,9,14.25,43.06,15.29,47-2,.84-12.38,5-17,5.41a38,38,0,0,1-7.53-.23c-1.87-.23-5.1-.65-7.41-1.09l.12.39c-.87,5.66-9,58.64-9.46,61.61h0c-.14,1-.36,2.48-.62,4.22-.74,5-1.81,12.19-1.84,13.48a11.89,11.89,0,0,0,0,1.23c.05.73.08,1.12-.59,1.61s-2.24,1.54-6.81,2.76-12.18,2.56-24.51,3.36c-23.87,1.54-32.09-1.28-42.23-4.76l-1-.34c-5.32-1.82-11.63-4.08-17.4-6.52s-10.93-5-14-7.48h0c-2.65-2.27-2.59-2.47-2.41-3.19l.08-.31c.17-.75,1.23-7.38,2.69-17.89.88-6.3,1.91-14.06,3-22.9l5-40.64.06-.48.08-.12Zm-22-36.75,2.48-3.89c1.68-2.62,3.23-5,4.52-7H1127.26c-35.87,0-65.22,29.11-65.22,64.69h0c0,35.58,29.35,64.69,65.22,64.69H1608.9c.08-.39.18-.8.3-1.23h0l0-.08h0c.08-.36.45-2.63,1-6.51.15-1,.3-2,.46-3.07H1126.63a53.82,53.82,0,0,1,0-107.64ZM1133.28,1403a15.35,15.35,0,0,0-3.21-7.58q-2.3-2.59-7-2.59a11,11,0,0,0-5.1,1.06,9.66,9.66,0,0,0-5,6,15.38,15.38,0,0,0-.59,3.14Zm-20.86,8.32q.27,6.38,3.16,9.24t8.31,2.87a11.25,11.25,0,0,0,6.68-2,8.21,8.21,0,0,0,3.43-4.21h11.29q-2.71,8.6-8.31,12.3a24,24,0,0,1-13.55,3.7,26.13,26.13,0,0,1-9.94-1.8,20.64,20.64,0,0,1-7.5-5.13,23.19,23.19,0,0,1-4.74-8,29.71,29.71,0,0,1-1.67-10.17,28.47,28.47,0,0,1,1.72-10,23.53,23.53,0,0,1,4.88-8,23,23,0,0,1,7.54-5.32,23.7,23.7,0,0,1,9.71-1.94,21.78,21.78,0,0,1,10.39,2.36,20.86,20.86,0,0,1,7.27,6.33,26.33,26.33,0,0,1,4.11,9.06,34.49,34.49,0,0,1,.9,10.63Zm53.47-27.09v6.66h.27a14.85,14.85,0,0,1,6.32-6.05,17.93,17.93,0,0,1,7.95-1.9,21.33,21.33,0,0,1,8.45,1.43,12.54,12.54,0,0,1,5.19,4,15.56,15.56,0,0,1,2.66,6.19,39.35,39.35,0,0,1,.77,8.09v29.4h-12.83v-27q0-5.92-1.81-8.83t-6.41-2.91q-5.24,0-7.59,3.19t-2.35,10.49v25.05h-12.83v-47.8Zm67,0V1393h-9.39v23.67q0,3.33,1.08,4.44t4.34,1.11q1.08,0,2.08-.09a17.73,17.73,0,0,0,1.9-.28v10.17a30,30,0,0,1-3.61.37q-2,.09-3.88.09a36.56,36.56,0,0,1-5.65-.42,13.09,13.09,0,0,1-4.7-1.62,8.48,8.48,0,0,1-3.21-3.42,12.45,12.45,0,0,1-1.17-5.82V1393h-7.77v-8.78h7.77v-14.33h12.83v14.33Zm18.34,0v8.87h.18a16.39,16.39,0,0,1,6-7.35,17,17,0,0,1,4.25-2.08,15,15,0,0,1,4.7-.74,9.79,9.79,0,0,1,2.8.46v12.2q-.9-.18-2.17-.32a22.36,22.36,0,0,0-2.44-.14,13.4,13.4,0,0,0-6,1.2,10.38,10.38,0,0,0-3.93,3.28,13.3,13.3,0,0,0-2.12,4.85,27,27,0,0,0-.63,6v21.54H1239v-47.8Zm23.3-7.4v-10.82h12.83v10.82Zm12.83,7.4v47.8h-12.83v-47.8Zm32.79,39.2a10,10,0,0,0,5.28-1.29,10.39,10.39,0,0,0,3.43-3.37,14.1,14.1,0,0,0,1.85-4.85,29.35,29.35,0,0,0,.54-5.64,27.18,27.18,0,0,0-.59-5.64,15.23,15.23,0,0,0-1.94-4.95,11,11,0,0,0-3.48-3.51,9.54,9.54,0,0,0-5.19-1.34,9.72,9.72,0,0,0-5.28,1.34,10.66,10.66,0,0,0-3.43,3.47,14.59,14.59,0,0,0-1.85,4.9,29.88,29.88,0,0,0-.54,5.73,27.09,27.09,0,0,0,.59,5.64,14.75,14.75,0,0,0,1.9,4.85,10.25,10.25,0,0,0,3.48,3.37,10,10,0,0,0,5.24,1.29Zm-11.38-39.2v6.1h.18a14.23,14.23,0,0,1,6-5.64,17.93,17.93,0,0,1,7.95-1.76,19.07,19.07,0,0,1,16.08,7.77,24.05,24.05,0,0,1,3.88,8.18,37.13,37.13,0,0,1,1.26,9.75,33.54,33.54,0,0,1-1.26,9.24,23.75,23.75,0,0,1-3.84,7.86,19.13,19.13,0,0,1-6.41,5.45,18.93,18.93,0,0,1-9,2,17.83,17.83,0,0,1-8-1.8,15.23,15.23,0,0,1-6-5.32h-.18v22.65h-12.83v-64.53Zm65.12,53.71q-2.08,5.82-5.78,8.32t-10.3,2.5q-2,0-3.93-.14t-3.93-.32v-10.82l3.7.37a26,26,0,0,0,3.79.09,5,5,0,0,0,3.75-2,6.66,6.66,0,0,0,1.22-3.88,8.06,8.06,0,0,0-.54-3l-16.35-44.84h13.64l10.57,32.73h.18l10.21-32.73h13.28L1373.89,1438Zm30.44-20.15v14.24h-14.18v-14.24Zm40.37-16.73q-1.26-8.23-9.48-8.23a8.85,8.85,0,0,0-5.15,1.43,11.29,11.29,0,0,0-3.39,3.7,16.21,16.21,0,0,0-1.85,5,27.7,27.7,0,0,0-.54,5.41,26.55,26.55,0,0,0,.54,5.27,16.52,16.52,0,0,0,1.76,4.85,10.25,10.25,0,0,0,3.3,3.56,8.91,8.91,0,0,0,5.06,1.39q4.61,0,7.09-2.63a12.6,12.6,0,0,0,3.12-7.07h12.37q-1.26,9.52-7.23,14.52t-15.26,5a25,25,0,0,1-9.62-1.8,21.31,21.31,0,0,1-7.45-5,23,23,0,0,1-4.79-7.72,27.32,27.32,0,0,1-1.72-9.85,32.55,32.55,0,0,1,1.58-10.31,23.34,23.34,0,0,1,4.65-8.23,21.3,21.3,0,0,1,7.5-5.41,25,25,0,0,1,10.12-1.94,28.64,28.64,0,0,1,8,1.11,21.13,21.13,0,0,1,6.86,3.37,17.92,17.92,0,0,1,4.92,5.64,18.31,18.31,0,0,1,2.17,8Zm30.53,7.12a28.63,28.63,0,0,0,.54,5.59,15.1,15.1,0,0,0,1.85,4.9,10,10,0,0,0,3.48,3.47,10.42,10.42,0,0,0,5.42,1.29,10.67,10.67,0,0,0,5.46-1.29,9.85,9.85,0,0,0,3.52-3.47,15.12,15.12,0,0,0,1.85-4.9,28.63,28.63,0,0,0,.54-5.59,29.36,29.36,0,0,0-.54-5.64,14.6,14.6,0,0,0-1.85-4.9,10,10,0,0,0-9-4.81,10.14,10.14,0,0,0-5.42,1.34,10.51,10.51,0,0,0-3.48,3.47,14.59,14.59,0,0,0-1.85,4.9,29.34,29.34,0,0,0-.54,5.64Zm-12.83,0a30,30,0,0,1,1.72-10.4,22.47,22.47,0,0,1,4.88-8,21.8,21.8,0,0,1,7.59-5.08,26.12,26.12,0,0,1,9.94-1.8,26.47,26.47,0,0,1,10,1.8,21.71,21.71,0,0,1,7.63,5.08,22.45,22.45,0,0,1,4.88,8,30,30,0,0,1,1.72,10.4,29.57,29.57,0,0,1-1.72,10.35,22.53,22.53,0,0,1-4.88,7.9,21.21,21.21,0,0,1-7.63,5,27.09,27.09,0,0,1-10,1.76,26.72,26.72,0,0,1-9.94-1.76,21.28,21.28,0,0,1-7.59-5,22.54,22.54,0,0,1-4.88-7.9,29.58,29.58,0,0,1-1.72-10.35Zm66.39-23.94v6.47h.18a18.42,18.42,0,0,1,6.1-5.73,16.21,16.21,0,0,1,8.17-2,18.43,18.43,0,0,1,8.08,1.76,11.52,11.52,0,0,1,5.55,6.19,20.1,20.1,0,0,1,5.65-5.55,14.75,14.75,0,0,1,8.45-2.4,24.36,24.36,0,0,1,6.86.92,13.71,13.71,0,0,1,5.42,3,13.57,13.57,0,0,1,3.52,5.32,22,22,0,0,1,1.26,7.9v32h-12.83V1405q0-2.4-.18-4.53a9.78,9.78,0,0,0-1-3.7,6.09,6.09,0,0,0-2.39-2.5,8.49,8.49,0,0,0-4.29-.92,8.06,8.06,0,0,0-4.38,1.06,7.63,7.63,0,0,0-2.62,2.77,11.29,11.29,0,0,0-1.26,3.88,30.52,30.52,0,0,0-.32,4.39v26.63H1546v-26.81q0-2.13-.09-4.21a12,12,0,0,0-.77-3.84,5.88,5.88,0,0,0-2.26-2.82,8.37,8.37,0,0,0-4.65-1.06,9.42,9.42,0,0,0-2.39.42,7.89,7.89,0,0,0-2.89,1.57,9.17,9.17,0,0,0-2.39,3.33,13.79,13.79,0,0,0-1,5.69v27.74h-12.83v-47.8Z" transform="translate(-1056 -1316.65)"/>
    <path class="cls-4" d="M1352.21,1517.67c.07-1.34.14-2.69.21-4s.16-2.71.23-4.06c0-.34-.17-.5-.54-.46l-2.63.3-3.81.44-1,.12c.18-.6.35-1.16.52-1.72a3,3,0,0,0,.17-.67,1.11,1.11,0,0,0-.47-.94l-7.14-5.81-.41-.34,1.53-.72c.51-.24.6-.39.46-.92-.4-1.53-.82-3.06-1.24-4.59l-.08-.35,1.35.28,3,.62a.71.71,0,0,0,.93-.57c.18-.6.35-1.21.54-1.86l1.12,1.25c.77.86,1.53,1.73,2.31,2.58a1.81,1.81,0,0,0,.53.43.53.53,0,0,0,.81-.49,9.86,9.86,0,0,0-.19-1.54c-.42-2.29-.86-4.58-1.29-6.87a1.37,1.37,0,0,1,0-.21l.24.1c.6.31,1.19.63,1.79.93a1,1,0,0,0,1.51-.48l2.5-4.68.14-.25.14.23,2.51,4.7a1,1,0,0,0,1.51.48c.57-.29,1.14-.59,1.71-.89l.34-.16c-.07.42-.13.8-.2,1.17-.43,2.29-.87,4.58-1.3,6.87a2.32,2.32,0,0,0,0,.66.52.52,0,0,0,.75.45,1.85,1.85,0,0,0,.59-.44c1-1.14,2.05-2.29,3.07-3.45l.34-.38c.07.23.13.42.19.61.12.41.23.83.36,1.25a.71.71,0,0,0,.93.57l4-.84.29,0-.55,2c-.27,1-.54,2-.79,3-.12.45,0,.64.42.84l1.58.75-.41.34-7.09,5.78a1.1,1.1,0,0,0-.43,1.39l.5,1.62c0,.1.05.2.09.34l-1.26-.14-3.83-.44c-.74-.09-1.49-.17-2.23-.27-.55-.07-.7.06-.67.62.09,1.49.17,3,.25,4.46q.09,1.73.18,3.45Z" transform="translate(-1056 -1316.65)"/>
  </g>
</svg>
